<svg width="3350" height="511" viewBox="0 0 3350 511" fill="none" xmlns="http://www.w3.org/2000/svg">
<path d="M687.5 312H741.5C781.5 312 809 302 827.5 281C845 261.5 854.5 233 854.5 200C854.5 165 843.5 138 822 117.5C800.5 97 777.5 89.5 738.5 89.5H601V423H687.5V312ZM687.5 242.5V159H716.5C748.5 159 764 173 764 201C764 229.5 749 242.5 716 242.5H687.5ZM885.73 196.5V423H965.73V326C965.73 284 984.23 262.5 1021.73 262.5C1035.23 262.5 1042.73 264 1055.73 270.5V194C1048.23 193.5 1045.23 193.5 1040.23 193.5C1005.73 193.5 984.23 205 965.73 233.5V196.5H885.73ZM1213.65 188C1177.15 188 1141.15 200 1118.65 219.5C1092.65 242 1077.65 274.5 1077.65 307.5C1077.65 380.5 1133.15 431.5 1212.65 431.5C1293.65 431.5 1350.15 381.5 1350.15 309.5C1350.15 238.5 1293.65 188 1213.65 188ZM1213.65 257C1242.65 257 1265.65 280 1265.65 309C1265.65 337.5 1242.65 361 1214.15 361C1185.15 361 1162.15 337.5 1162.15 308.5C1162.15 280.5 1185.65 257 1213.65 257ZM1564.64 56.5V218.5C1544.64 198 1523.14 189 1494.14 189C1429.64 189 1380.14 241 1380.14 309C1380.14 377.5 1430.14 430.5 1494.64 430.5C1525.14 430.5 1547.14 420.5 1564.64 398V423H1644.64V56.5H1564.64ZM1515.14 258C1544.14 258 1567.14 281 1567.14 309.5C1567.14 338.5 1544.14 361.5 1515.64 361.5C1486.64 361.5 1463.64 338.5 1463.64 309C1463.64 281 1487.14 258 1515.14 258ZM1772.11 196.5H1692.11V340.5C1692.11 400.5 1734.11 432.5 1813.11 432.5C1891.61 432.5 1933.61 400.5 1933.61 340.5V196.5H1853.61V325C1853.61 352.5 1840.11 366.5 1813.11 366.5C1785.61 366.5 1772.11 352.5 1772.11 325V196.5ZM2151.92 202C2133.92 193 2118.92 189.5 2097.92 189.5C2025.92 189.5 1971.92 241.5 1971.92 311.5C1971.92 378.5 2026.42 430.5 2095.92 430.5C2115.92 430.5 2131.92 427 2151.92 418V350C2138.42 360.5 2125.92 365 2110.42 365C2078.92 365 2055.42 342 2055.42 310.5C2055.42 278.5 2078.42 255.5 2110.42 255.5C2124.92 255.5 2136.42 259.5 2151.92 270V202ZM2287.94 263H2333.44V196.5H2287.94V128.5H2207.94V196.5H2181.44V263H2207.94V423H2287.94V263ZM2546.9 136C2526.9 101.5 2498.4 84 2460.9 84C2407.4 84 2367.4 121 2367.4 170C2367.4 206.5 2386.9 230.5 2434.9 252C2481.4 273 2481.4 273 2493.9 281C2512.4 292.5 2521.4 308 2521.4 328.5C2521.4 365 2491.9 394 2454.4 394C2432.4 394 2411.9 384 2399.9 367C2393.4 358 2390.4 350 2386.4 333L2350.4 343C2362.9 397.5 2400.4 429 2452.9 429C2512.9 429 2558.9 384 2558.9 326.5C2558.9 284.5 2537.4 258 2483.4 234.5C2437.9 214.5 2437.9 214.5 2425.9 206.5C2411.9 197 2404.9 185 2404.9 170.5C2404.9 141 2428.9 119 2459.9 119C2485.9 119 2500.4 128 2517.4 155L2546.9 136ZM2645.73 248.5H2682.73V215.5H2645.73V140.5H2610.23V215.5H2588.73V248.5H2610.23V423H2645.73V248.5ZM2866.04 215.5V245C2845.54 221 2823.54 210.5 2793.54 210.5C2736.54 210.5 2694.54 256 2694.54 318.5C2694.54 382.5 2736.54 429 2794.54 429C2824.04 429 2846.04 418 2866.04 394V423H2901.54V215.5H2866.04ZM2799.54 243C2840.04 243 2868.54 274 2868.54 319C2868.54 364.5 2840.04 396.5 2799.04 396.5C2759.54 396.5 2731.04 363.5 2731.04 318C2731.04 275.5 2760.54 243 2799.54 243ZM3069.36 248.5C3056.36 223 3037.86 211 3012.36 211C2977.86 211 2951.86 236 2951.86 269C2951.86 296.5 2963.86 308.5 3011.86 329.5C3037.86 340.5 3045.36 348 3045.36 364C3045.36 382.5 3030.86 396.5 3011.36 396.5C2991.86 396.5 2981.86 388 2969.86 363L2938.36 376C2951.86 411 2976.36 429 3010.86 429C3051.36 429 3081.86 400 3081.86 361.5C3081.86 342 3073.86 327 3058.86 316C3049.36 309 3043.36 306 3019.36 296C2992.86 285 2985.86 278.5 2985.86 266.5C2985.86 254 2997.36 243.5 3010.86 243.5C3023.36 243.5 3032.36 250 3039.86 264L3069.36 248.5ZM3123.57 58.5V423H3159.07V319.5C3159.07 295 3161.57 280 3167.57 268C3175.07 252.5 3191.07 243.5 3211.57 243.5C3242.07 243.5 3254.57 259 3254.57 297V423H3290.07V294.5C3290.07 267.5 3286.57 252.5 3278.07 239.5C3266.57 222 3243.57 211 3218.57 211C3193.57 211 3176.57 219 3159.07 240V58.5H3123.57Z" fill="#282828"/>
<rect x="0.5" y="0.5" width="509" height="509.998" rx="97.5" fill="url(#paint0_linear)"/>
<rect x="0.5" y="0.5" width="509" height="509.998" rx="97.5" fill="url(#paint1_linear)"/>
<rect x="0.5" y="0.5" width="509" height="509.998" rx="97.5" fill="url(#paint2_linear)"/>
<rect x="0.5" y="0.5" width="509" height="509.998" rx="97.5" fill="url(#paint3_linear)"/>
<rect x="0.5" y="0.5" width="509" height="509.998" rx="97.5" fill="url(#paint4_linear)"/>
<rect x="0.5" y="0.5" width="509" height="509.998" rx="97.5" fill="url(#paint5_linear)"/>
<rect x="0.5" y="0.5" width="509" height="509.998" rx="97.5" fill="url(#paint6_linear)"/>
<rect x="0.5" y="0.5" width="509" height="509.998" rx="97.5" stroke="#979797"/>
<rect width="510" height="510.998" rx="98" fill="url(#paint7_linear)"/>
<rect width="510" height="510.998" rx="98" fill="url(#paint8_linear)"/>
<rect width="510" height="510.998" rx="98" fill="url(#paint9_linear)"/>
<rect width="510" height="510.998" rx="98" fill="url(#paint10_linear)"/>
<rect width="510" height="510.998" rx="98" fill="url(#paint11_linear)"/>
<rect width="510" height="510.998" rx="98" fill="url(#paint12_linear)"/>
<rect width="510" height="510.998" rx="98" fill="url(#paint13_linear)"/>
<rect x="131.742" y="75.8516" width="111.038" height="111.427" fill="white"/>
<rect x="255.243" y="75.8516" width="111.038" height="111.427" fill="white"/>
<rect x="131.742" y="199.786" width="111.038" height="111.427" fill="white"/>
<rect x="255.243" y="199.786" width="111.038" height="111.427" fill="white"/>
<rect x="131.742" y="323.72" width="111.038" height="111.427" fill="white"/>
<defs>
<linearGradient id="paint0_linear" x1="382.5" y1="255.499" x2="382.5" y2="0" gradientUnits="userSpaceOnUse">
<stop stop-color="#FF0000" stop-opacity="0.5"/>
<stop offset="1" stop-color="#FF0000"/>
</linearGradient>
<linearGradient id="paint1_linear" x1="347.802" y1="377.547" x2="598.399" y2="201.513" gradientUnits="userSpaceOnUse">
<stop stop-color="#FF8000" stop-opacity="0.01"/>
<stop offset="1" stop-color="#FF8000" stop-opacity="0.7"/>
</linearGradient>
<linearGradient id="paint2_linear" x1="168.131" y1="383.249" x2="423.447" y2="556.863" gradientUnits="userSpaceOnUse">
<stop stop-color="#FFFF00" stop-opacity="0.01"/>
<stop offset="0.969058" stop-color="#FFFF00" stop-opacity="0.7"/>
<stop offset="1" stop-color="#FFFF00"/>
</linearGradient>
<linearGradient id="paint3_linear" x1="127.5" y1="319.922" x2="256.495" y2="575.218" gradientUnits="userSpaceOnUse">
<stop stop-color="#09FAFD" stop-opacity="0.01"/>
<stop offset="1" stop-color="#09FAFD" stop-opacity="0.7"/>
</linearGradient>
<linearGradient id="paint4_linear" x1="127.5" y1="186.268" x2="-11.1094" y2="441.54" gradientUnits="userSpaceOnUse">
<stop stop-color="#19E500" stop-opacity="0.01"/>
<stop offset="0.965611" stop-color="#19E500" stop-opacity="0.7"/>
<stop offset="1" stop-color="#19E500"/>
</linearGradient>
<linearGradient id="paint5_linear" x1="213.667" y1="107.787" x2="-59.412" y2="226.115" gradientUnits="userSpaceOnUse">
<stop stop-color="#0C00CC" stop-opacity="0.01"/>
<stop offset="1" stop-color="#0C00CC" stop-opacity="0.7"/>
</linearGradient>
<linearGradient id="paint6_linear" x1="331.275" y1="127.75" x2="76.0125" y2="-24.6593" gradientUnits="userSpaceOnUse">
<stop stop-color="#C400CC" stop-opacity="0.01"/>
<stop offset="1" stop-color="#C400CC" stop-opacity="0.98"/>
</linearGradient>
<linearGradient id="paint7_linear" x1="382.5" y1="255.499" x2="382.5" y2="0" gradientUnits="userSpaceOnUse">
<stop stop-color="#FF5252" stop-opacity="0.01"/>
<stop offset="1" stop-color="#FF0000"/>
</linearGradient>
<linearGradient id="paint8_linear" x1="385.564" y1="377.547" x2="636.328" y2="125.872" gradientUnits="userSpaceOnUse">
<stop stop-color="#FFB66C" stop-opacity="0.01"/>
<stop offset="1" stop-color="#FF8000" stop-opacity="0.7"/>
</linearGradient>
<linearGradient id="paint9_linear" x1="127.726" y1="383.022" x2="382.772" y2="637.57" gradientUnits="userSpaceOnUse">
<stop stop-color="#FFFF3B" stop-opacity="0.01"/>
<stop offset="0.999114" stop-color="#FFFF00" stop-opacity="0.7"/>
</linearGradient>
<linearGradient id="paint10_linear" x1="127.5" y1="232" x2="80.4169" y2="487.467" gradientUnits="userSpaceOnUse">
<stop stop-color="#7BFDFF" stop-opacity="0.01"/>
<stop offset="1" stop-color="#09FAFD" stop-opacity="0.7"/>
</linearGradient>
<linearGradient id="paint11_linear" x1="127.5" y1="127.75" x2="-127.999" y2="382.749" gradientUnits="userSpaceOnUse">
<stop stop-color="#71FF5F" stop-opacity="0.01"/>
<stop offset="1" stop-color="#19E500" stop-opacity="0.7"/>
</linearGradient>
<linearGradient id="paint12_linear" x1="139.925" y1="107.787" x2="-133.504" y2="373.742" gradientUnits="userSpaceOnUse">
<stop stop-color="#6258FF" stop-opacity="0.01"/>
<stop offset="1" stop-color="#0C00CC" stop-opacity="0.7"/>
</linearGradient>
<linearGradient id="paint13_linear" x1="382.5" y1="127.75" x2="127.001" y2="-127.25" gradientUnits="userSpaceOnUse">
<stop stop-color="#F847FF" stop-opacity="0.01"/>
<stop offset="1" stop-color="#C400CC" stop-opacity="0.98"/>
</linearGradient>
</defs>
</svg>
